<svg width="516" height="322" viewBox="0 0 516 322" fill="none" xmlns="http://www.w3.org/2000/svg">
<path d="M261.401 90.5014C256.8 83.3502 251.348 75.7149 242.81 73.3798C232.923 70.6756 222.765 76.0475 214.15 81.3485C188.384 97.202 163.571 114.383 139.825 132.812L139.851 133.089C158.339 131.891 176.826 130.693 195.313 129.495C208.67 128.629 222.486 127.644 234.291 121.706C238.77 119.453 243.136 116.443 248.212 116.233C254.518 115.973 260.016 120.111 264.337 124.436C289.898 150.015 297.295 189.131 325.971 211.605C307.888 169.696 286.298 129.201 261.401 90.5014Z" fill="#F2F2F2"/>
<path d="M418.518 307.459C415.692 304.104 414.537 303.319 411.749 299.934C389.046 272.34 367.708 243.814 347.734 214.357C334.166 194.35 321.272 173.959 309.05 153.184C303.231 143.308 297.572 133.354 292.073 123.322C287.805 115.544 283.633 107.719 279.556 99.8474C278.39 97.5991 277.257 95.3406 276.13 93.0769C273.473 87.7535 270.866 82.4043 268.067 77.1533C264.878 71.1684 260.995 64.894 255.138 60.8731C252.472 58.9681 249.285 57.8154 245.948 57.5499C241.18 57.2604 236.78 59.1107 232.645 61.1315C202.386 75.9594 174.058 94.5499 148.436 115.704C122.748 136.905 99.7867 160.858 80.021 187.073C79.4163 187.885 77.9863 187.109 78.5967 186.293C81.0001 183.099 83.4511 179.939 85.9497 176.814C117.018 137.982 155.113 104.589 198.492 78.1611C205.79 73.7164 213.226 69.48 220.799 65.4522C224.615 63.421 228.448 61.4157 232.348 59.5345C236.17 57.6894 240.228 56.0304 244.595 55.9683C259.455 55.7513 267.149 71.5663 272.434 82.2079C274.095 85.557 275.776 88.8957 277.477 92.2241C283.906 104.861 290.582 117.382 297.506 129.787C301.779 137.447 306.146 145.062 310.606 152.631C324.487 176.204 339.24 199.3 354.867 221.918C375.567 251.879 396.102 278.346 419.684 306.363C420.333 307.138 419.173 308.244 418.518 307.459Z" fill="#E4E4E4"/>
<path d="M146.967 107.894C146.103 106.99 145.245 106.086 144.376 105.181C137.524 98.0591 130.171 91.0199 120.761 86.9369C116.275 84.9286 111.377 83.8617 106.408 83.8101C101.271 83.8256 96.25 85.0918 91.504 86.8646C89.2601 87.707 87.0657 88.6631 84.9045 89.6813C82.4351 90.8493 80.0097 92.0949 77.5956 93.3508C73.0639 95.7076 68.5909 98.1677 64.1768 100.731C55.3939 105.832 46.886 111.323 38.6533 117.203C34.3855 120.252 30.2058 123.401 26.1141 126.65C22.3085 129.669 18.5798 132.768 14.9281 135.948C14.1472 136.625 12.9813 135.529 13.7622 134.852C14.7246 134.01 15.698 133.173 16.6715 132.346C19.4212 130.01 22.215 127.718 25.0529 125.472C30.2278 121.368 35.5367 117.423 40.9796 113.636C49.4434 107.745 58.1987 102.252 67.2453 97.1599C71.766 94.6171 76.349 92.1811 80.9942 89.8518C82.3967 89.149 83.8156 88.4616 85.2509 87.8104C88.5078 86.2665 91.8918 84.9719 95.3701 83.9393C100.297 82.4414 105.51 81.9601 110.653 82.5283C115.619 83.2072 120.404 84.7626 124.754 87.1126C133.993 91.9657 141.159 99.4701 148.133 106.794C148.837 107.538 147.676 108.639 146.967 107.894Z" fill="#E4E4E4"/>
<path d="M336.274 181.697L358.413 174.087L369.406 170.309C372.986 169.078 376.557 167.677 380.258 166.796C383.474 165.933 386.889 165.974 390.081 166.914C392.927 167.904 395.532 169.422 397.742 171.377C399.999 173.33 402.1 175.438 404.026 177.684C406.419 180.386 408.777 183.118 411.146 185.84C420.921 197.074 430.632 208.358 440.279 219.69C449.926 231.022 459.508 242.402 469.026 253.83C478.568 265.286 488.043 276.79 497.453 288.342C498.606 289.757 499.758 291.173 500.909 292.589C501.544 293.372 502.978 292.6 502.333 291.807C492.854 280.139 483.308 268.518 473.697 256.946C464.061 245.346 454.36 233.795 444.591 222.293C434.823 210.791 424.989 199.339 415.089 187.938C412.622 185.097 410.152 182.26 407.677 179.425C405.59 177.035 403.526 174.618 401.236 172.393C397.034 168.308 391.783 164.698 385.498 164.6C381.803 164.543 378.227 165.645 374.793 166.812C371.092 168.07 367.4 169.352 363.703 170.623L341.409 178.286L335.836 180.202C334.846 180.542 335.274 182.041 336.274 181.697L336.274 181.697Z" fill="#E4E4E4"/>
<path d="M117.848 95.8985C106.597 90.4644 92.1892 91.5287 81.8506 98.3178C101.571 101.515 121.075 105.793 140.264 111.13C132.296 106.742 126.063 99.866 117.848 95.8985Z" fill="#F2F2F2"/>
<path d="M81.7392 98.299L79.5732 99.9535C80.3059 99.3744 81.0675 98.8315 81.8499 98.3178C81.8129 98.3118 81.7761 98.305 81.7392 98.299Z" fill="#F2F2F2"/>
<path d="M396.908 181.773C394.729 179.28 392.372 176.669 389.113 175.657L386.069 175.77C409.236 214.241 440.525 247.857 478.016 274.555C450.98 243.627 423.944 212.7 396.908 181.773Z" fill="#F2F2F2"/>
<path d="M207.658 161.207C209.067 166.015 212.24 170.201 216.616 173.023C218.307 174.105 220.309 175.144 220.888 176.989C221.192 178.165 221.005 179.406 220.364 180.456C219.724 181.492 218.945 182.447 218.047 183.298L217.965 183.587C213.767 181.248 209.773 178.291 207.454 174.255C205.134 170.22 204.811 164.931 207.658 161.207" fill="#F2F2F2"/>
<path d="M347.437 275.653C348.845 280.462 352.018 284.648 356.394 287.469C358.086 288.552 360.087 289.59 360.666 291.435C360.971 292.611 360.783 293.853 360.142 294.902C359.502 295.939 358.724 296.894 357.826 297.745L357.744 298.033C353.545 295.695 349.551 292.738 347.232 288.702C344.913 284.667 344.589 279.378 347.437 275.653" fill="#F2F2F2"/>
<path d="M68.4796 267.76C69.8879 272.569 73.0608 276.755 77.4369 279.576C79.1287 280.659 81.1304 281.697 81.7091 283.542C82.0136 284.719 81.826 285.96 81.1851 287.01C80.5453 288.046 79.7668 289.001 78.8687 289.852L78.7867 290.14C74.5883 287.802 70.5941 284.845 68.2749 280.809C65.9557 276.774 65.632 271.485 68.4796 267.76" fill="#F2F2F2"/>
<path d="M389.49 57.5052C406.387 57.5052 420.085 44.6322 420.085 28.7526C420.085 12.873 406.387 0 389.49 0C372.593 0 358.895 12.873 358.895 28.7526C358.895 44.6322 372.593 57.5052 389.49 57.5052Z" fill="#6C63FF"/>
<path d="M444.703 6.69224C429.875 4.8087 412.947 12.3405 409.104 25.9303C408.135 23.514 406.374 21.4497 404.075 20.0355C401.777 18.6212 399.059 17.9304 396.315 18.0627C393.571 18.195 390.943 19.1437 388.811 20.7716C386.678 22.3995 385.151 24.6224 384.451 27.1191L386.149 28.2617C417.924 34.7194 450.817 34.5796 482.529 27.8522C472.215 17.6654 459.531 8.57575 444.703 6.69224Z" fill="#F0F0F0"/>
<path d="M381.112 45.0291C366.284 43.1455 349.356 50.6774 345.513 64.2671C344.544 61.8509 342.783 59.7865 340.485 58.3723C338.186 56.9581 335.468 56.2672 332.724 56.3995C329.981 56.5319 327.353 57.4805 325.22 59.1084C323.087 60.7363 321.561 62.9592 320.86 65.456L322.558 66.5986C354.334 73.0562 387.226 72.9164 418.938 66.189C408.624 56.0022 395.94 46.9126 381.112 45.0291Z" fill="#F0F0F0"/>
<path d="M510.529 52.278C510.468 52.2781 510.407 52.2692 510.348 52.2516C351.728 5.10962 211.927 11.2743 122.579 24.7471C110.42 26.5799 98.2284 28.6968 86.3427 31.0395C83.3083 31.6368 80.1603 32.2772 76.9862 32.9439C73.1954 33.7372 69.4551 34.5543 65.8685 35.3713C64.3196 35.716 62.8008 36.0634 61.3124 36.4135C59.0577 36.9366 56.77 37.4816 54.3177 38.0806C51.5774 38.7446 48.7931 39.4411 46.0405 40.1507C46.0304 40.1541 46.0202 40.1568 46.0097 40.159L46.01 40.1596C42.9009 40.9573 39.8082 41.7782 36.8175 42.598C35.1988 43.0374 33.6357 43.4707 32.1386 43.8984C31.9714 43.9419 31.8231 43.9838 31.6729 44.0267L31.3512 44.1187C31.1649 44.1721 30.981 44.2244 30.797 44.2739L30.7853 44.2772L30.7856 44.2778L30.2988 44.4199C29.7182 44.5851 29.1517 44.7463 28.5945 44.9071C13.8698 49.1729 5.77516 52.2076 5.69519 52.2373C5.62206 52.2649 5.54388 52.2786 5.46511 52.2777C5.38633 52.2769 5.3085 52.2615 5.23607 52.2324C5.16363 52.2032 5.098 52.161 5.04294 52.1081C4.98787 52.0551 4.94445 51.9925 4.91513 51.9238C4.88582 51.855 4.87121 51.7816 4.87211 51.7075C4.87301 51.6335 4.88942 51.5604 4.92041 51.4923C4.95139 51.4242 4.99633 51.3625 5.05267 51.3108C5.10901 51.2591 5.17565 51.2182 5.24877 51.1907C5.32933 51.161 13.4635 48.1108 28.2419 43.8291C28.801 43.6678 29.369 43.5065 29.9514 43.3408L30.4036 43.2086C30.4191 43.2031 30.4347 43.1987 30.4505 43.1943C30.6336 43.1453 30.8164 43.093 31.0021 43.0402L31.3243 42.9482C31.4848 42.9025 31.643 42.8574 31.805 42.8155C33.2919 42.3905 34.8602 41.9561 36.483 41.5151C39.4749 40.6948 42.5705 39.8739 45.682 39.075C45.6916 39.0717 45.7016 39.0695 45.7113 39.0667V39.0662C48.4735 38.3543 51.268 37.6551 54.0171 36.9889C56.4733 36.3893 58.7654 35.8432 61.0239 35.319C62.5187 34.9694 64.0403 34.6213 65.5888 34.2746C69.1795 33.4565 72.9274 32.6384 76.7249 31.8433C79.904 31.1761 83.0573 30.5341 86.0967 29.9362C98.0008 27.5897 110.212 25.4695 122.389 23.6339C211.865 10.1418 351.867 3.96719 510.71 51.1769C510.846 51.2174 510.963 51.3025 511.039 51.4168C511.114 51.5312 511.144 51.6671 511.122 51.8002C511.1 51.9332 511.028 52.0545 510.92 52.1422C510.811 52.2298 510.672 52.278 510.529 52.278Z" fill="#CCCCCC"/>
<path d="M157.769 236.696C157.561 236.125 157.212 235.609 156.749 235.191C156.578 235.042 156.394 234.908 156.197 234.79C154.632 233.81 152.292 233.59 150.804 234.79C150.654 234.913 150.516 235.047 150.39 235.191C149.946 235.704 149.49 236.206 149.022 236.696C148.255 237.519 147.469 238.314 146.647 239.086C146.413 239.301 146.179 239.521 145.939 239.735C145.801 239.864 145.663 239.989 145.525 240.113C144.997 240.586 144.457 241.043 143.911 241.494C143.623 241.736 143.335 241.973 143.041 242.204C142.603 242.548 142.165 242.892 141.722 243.225C141.68 243.253 141.638 243.281 141.596 243.315C141.584 243.32 141.578 243.332 141.566 243.337C141.56 243.337 141.554 243.337 141.548 243.349C141.531 243.355 141.517 243.364 141.506 243.377C141.374 243.461 141.284 243.518 141.218 243.568C141.242 243.557 141.266 243.54 141.29 243.529C141.182 243.608 141.068 243.687 140.96 243.766C139.91 244.493 138.836 245.192 137.738 245.846C135.022 247.48 132.169 248.903 129.207 250.103C129.009 250.176 128.805 250.255 128.602 250.328C120.847 253.314 112.436 254.479 104.095 253.722C103.243 253.66 102.391 253.576 101.54 253.468C100.556 253.333 99.5779 253.17 98.6061 252.984C94.9062 252.29 91.286 251.263 87.7957 249.917C83.4297 248.038 79.2772 245.748 75.4016 243.084C74.8017 242.683 74.1958 242.283 73.5899 241.894C74.2798 240.304 74.9577 238.714 75.6176 237.113C75.9476 236.341 76.2655 235.568 76.5775 234.79C79.0311 228.798 81.3347 222.748 83.5424 216.676C85.774 210.526 87.8797 204.339 89.8594 198.117C90.0634 197.485 90.2614 196.854 90.4533 196.223C91.4912 192.936 92.487 189.641 93.4409 186.34C93.5309 186.018 93.6269 185.702 93.7108 185.381C93.9868 184.434 94.2567 183.487 94.5207 182.54C95.1206 180.403 93.7648 177.849 91.3772 177.336C90.2276 177.059 89.0085 177.212 87.9767 177.763C86.945 178.314 86.1811 179.22 85.846 180.29C85.5881 181.204 85.3301 182.111 85.0662 183.025C83.8004 187.439 82.4686 191.838 81.0708 196.223C80.8668 196.854 80.6628 197.485 80.4589 198.117C77.3753 207.667 73.9898 217.122 70.3024 226.48C69.8585 227.614 69.4085 228.743 68.9526 229.869C68.7306 230.421 68.5087 230.974 68.2807 231.526C67.8428 232.614 67.3929 233.702 66.9429 234.79C66.6849 235.428 66.421 236.065 66.1571 236.696C65.9831 237.096 65.8151 237.497 65.6471 237.891C63.9367 237.314 62.1645 236.913 60.3619 236.696L60.074 236.662C58.6764 236.504 57.2631 236.516 55.8686 236.696C53.7816 236.925 51.7735 237.582 49.9864 238.62C48.1992 239.659 46.6766 241.054 45.5262 242.706C42.6646 246.94 42.7006 252.995 46.714 256.592C50.8474 260.296 57.1044 260.268 61.9697 257.95C64.548 256.64 66.7219 254.725 68.2807 252.392C68.8779 251.546 69.4266 250.671 69.9245 249.77C70.0505 249.849 70.1764 249.928 70.3024 250.012C70.7823 250.328 71.2623 250.65 71.7362 250.965C74.4976 252.845 77.4076 254.525 80.4409 255.989C86.963 259.036 93.9838 261.031 101.21 261.891C101.372 261.908 101.528 261.931 101.69 261.948C102.487 262.043 103.291 262.117 104.095 262.179C115.627 262.995 127.172 260.778 137.438 255.774C138.308 255.351 139.17 254.908 140.024 254.444C141.35 253.722 142.645 252.955 143.911 252.144C144.601 251.704 145.273 251.258 145.939 250.79C148.849 248.776 151.561 246.522 154.044 244.053C154.985 243.123 155.887 242.163 156.749 241.172C157.564 240.362 158.034 239.299 158.069 238.184C158.064 237.675 157.963 237.171 157.769 236.696ZM58.4302 250.125C58.5562 250.041 58.6822 249.95 58.8022 249.86C58.7662 249.945 58.5922 250.041 58.4303 250.125H58.4302ZM60.3559 248.304C60.218 248.451 60.092 248.597 59.954 248.744C59.5342 249.185 59.0833 249.6 58.6042 249.984C58.5382 250.041 58.4662 250.097 58.3942 250.148C58.3935 250.148 58.3927 250.148 58.3919 250.148C58.3912 250.148 58.3905 250.149 58.39 250.149C58.3894 250.15 58.389 250.151 58.3887 250.151C58.3884 250.152 58.3882 250.153 58.3882 250.153C58.3016 250.19 58.2174 250.231 58.1363 250.277C57.8783 250.424 57.6143 250.559 57.3444 250.683C56.8158 250.866 56.2721 251.008 55.7187 251.106C55.2934 251.135 54.8666 251.139 54.4409 251.117H54.4288C54.135 251.056 53.8447 250.981 53.559 250.892C53.415 250.824 53.277 250.745 53.139 250.666C53.085 250.621 53.037 250.576 53.0071 250.548C52.9485 250.498 52.8943 250.443 52.8451 250.385C52.8451 250.384 52.845 250.383 52.8447 250.382C52.8444 250.382 52.844 250.381 52.8434 250.381C52.8428 250.38 52.8422 250.38 52.8414 250.379C52.8407 250.379 52.8399 250.379 52.8391 250.379C52.7731 250.266 52.7011 250.153 52.6352 250.041C52.6317 250.038 52.6296 250.034 52.6292 250.029C52.5812 249.888 52.5392 249.742 52.5032 249.595C52.4902 249.338 52.4922 249.08 52.5092 248.823C52.5897 248.463 52.6979 248.108 52.8331 247.763C52.9546 247.518 53.0929 247.281 53.2471 247.053C53.2591 247.03 53.3191 246.94 53.385 246.838C53.391 246.833 53.391 246.833 53.391 246.827C53.481 246.731 53.571 246.63 53.667 246.54C53.829 246.37 54.003 246.224 54.1769 246.072C54.5153 245.864 54.8658 245.673 55.2268 245.502C55.7995 245.311 56.3871 245.162 56.9845 245.057C57.8653 244.991 58.7507 244.999 59.6301 245.079C60.4631 245.215 61.2849 245.406 62.0897 245.649C61.6019 246.538 61.0466 247.394 60.428 248.208C60.4039 248.242 60.38 248.276 60.3559 248.304ZM53.685 246.449C53.6321 246.529 53.5697 246.603 53.499 246.669C53.5466 246.586 53.6096 246.512 53.685 246.449Z" fill="#3F3D56"/>
<path d="M139.736 179.118C139.682 180.888 139.628 182.658 139.574 184.428C139.46 188.358 139.342 192.289 139.22 196.223C139.094 200.648 138.962 205.072 138.824 209.494C138.758 211.777 138.69 214.06 138.62 216.344C138.434 222.495 138.25 228.643 138.068 234.79C138.05 235.428 138.026 236.059 138.008 236.696C137.918 239.746 137.828 242.796 137.738 245.846C137.636 249.156 137.536 252.465 137.438 255.774C137.366 258.255 137.292 260.737 137.216 263.222C136.676 281.223 136.136 299.225 135.596 317.226C135.573 318.341 135.092 319.404 134.253 320.192C133.414 320.98 132.283 321.433 131.097 321.454C129.907 321.445 128.768 320.997 127.926 320.206C127.084 319.415 126.607 318.345 126.598 317.226C126.898 307.101 127.202 296.975 127.51 286.85C127.779 277.694 128.053 268.538 128.331 259.382C128.421 256.366 128.511 253.348 128.601 250.328C128.739 245.784 128.875 241.24 129.009 236.696C129.027 236.059 129.051 235.428 129.069 234.79C129.081 234.232 129.099 233.68 129.117 233.122C129.381 224.299 129.645 215.474 129.909 206.647C130.017 203.174 130.121 199.699 130.221 196.223C130.341 192.259 130.461 188.298 130.581 184.338C130.635 182.596 130.683 180.86 130.737 179.118C130.76 178.003 131.241 176.94 132.08 176.151C132.919 175.363 134.05 174.911 135.236 174.889C136.427 174.898 137.566 175.347 138.407 176.138C139.249 176.929 139.726 177.999 139.736 179.118Z" fill="#3F3D56"/>
<path d="M386.555 180.291C381.837 197.08 376.198 213.628 369.661 229.87C367.857 234.35 366.011 238.821 364.039 243.238L364.492 242.228C363.612 244.332 362.487 246.339 361.139 248.211C361.047 248.332 360.954 248.451 360.859 248.57C361.325 248.01 361.414 247.899 361.125 248.238C360.972 248.407 360.822 248.577 360.664 248.743C360.244 249.184 359.794 249.599 359.315 249.985C359.194 250.081 359.072 250.176 358.948 250.269L359.511 249.858C359.445 250.003 358.987 250.195 358.844 250.277C358.382 250.539 357.9 250.768 357.402 250.964L358.476 250.537C357.66 250.847 356.808 251.066 355.938 251.192L357.134 251.041C356.279 251.152 355.413 251.161 354.556 251.067L355.752 251.218C355.051 251.127 354.364 250.953 353.709 250.701L354.784 251.127C354.435 250.984 354.098 250.815 353.777 250.622C353.614 250.522 353.114 250.166 353.768 250.636C354.448 251.124 353.855 250.678 353.715 250.548C353.599 250.44 353.494 250.322 353.38 250.212C352.85 249.702 353.977 251.09 353.618 250.493C353.425 250.195 353.25 249.887 353.091 249.571L353.544 250.581C353.338 250.1 353.191 249.598 353.108 249.086L353.268 250.21C353.183 249.573 353.182 248.928 353.266 248.29L353.106 249.415C353.216 248.703 353.416 248.006 353.703 247.34L353.249 248.35C353.449 247.901 353.685 247.468 353.956 247.054C354.08 246.84 354.227 246.638 354.393 246.45C354.422 246.459 353.632 247.303 354.051 246.877C354.161 246.765 354.264 246.648 354.375 246.537C354.552 246.36 354.743 246.199 354.93 246.031C355.556 245.47 354.053 246.576 354.776 246.132C355.3 245.808 355.852 245.526 356.425 245.287L355.35 245.713C356.311 245.342 357.318 245.088 358.347 244.958L357.151 245.109C358.44 244.969 359.742 244.984 361.027 245.152L359.831 245.001C361.458 245.233 363.048 245.653 364.565 246.252L363.49 245.826C366.724 247.131 369.587 249.067 372.446 250.967C375.207 252.846 378.116 254.524 381.148 255.988C387.671 259.036 394.692 261.032 401.918 261.893C412.282 263.086 422.799 261.814 432.503 258.194C442.208 254.573 450.789 248.721 457.461 241.173C458.275 240.361 458.744 239.298 458.779 238.183C458.77 237.063 458.298 235.991 457.461 235.193C455.81 233.769 452.692 233.367 451.098 235.193C449.587 236.926 447.963 238.57 446.235 240.113C445.428 240.833 444.6 241.53 443.75 242.205C443.264 242.59 442.772 242.968 442.274 243.339C442.038 243.514 441.302 243.98 442.431 243.227C442.173 243.4 441.924 243.588 441.669 243.766C437.891 246.383 433.797 248.571 429.472 250.285L430.546 249.859C425.905 251.689 421.031 252.944 416.046 253.593L417.242 253.442C412.114 254.076 406.919 254.068 401.792 253.42L402.988 253.571C397.863 252.91 392.851 251.627 388.076 249.754L389.151 250.181C384.544 248.265 380.172 245.885 376.111 243.082C373.998 241.612 371.77 240.293 369.445 239.139C366.736 237.839 363.803 237.001 360.783 236.665C355.121 236.039 349.351 238.111 346.238 242.709C343.373 246.94 343.41 252.994 347.422 256.592C351.554 260.297 357.811 260.266 362.681 257.948C367.37 255.716 370.187 251.078 372.168 246.705C376.626 236.865 380.573 226.796 384.25 216.677C387.888 206.665 391.188 196.552 394.148 186.338C394.515 185.073 394.876 183.807 395.232 182.539C395.832 180.403 394.475 177.848 392.089 177.338C390.939 177.06 389.719 177.212 388.687 177.763C387.654 178.314 386.89 179.22 386.555 180.291L386.555 180.291Z" fill="#3F3D56"/>
<path d="M431.448 179.117L429.829 233.123L428.218 286.848L427.307 317.226C427.317 318.345 427.794 319.415 428.636 320.206C429.477 320.996 430.616 321.445 431.806 321.455C432.992 321.433 434.123 320.981 434.962 320.192C435.801 319.404 436.282 318.341 436.305 317.226L437.925 263.22L439.536 209.496L440.447 179.117C440.437 177.999 439.959 176.929 439.118 176.138C438.276 175.347 437.138 174.898 435.947 174.889C434.761 174.911 433.63 175.363 432.791 176.151C431.952 176.94 431.471 178.003 431.448 179.117Z" fill="#3F3D56"/>
<path opacity="0.2" d="M275.713 302.148H277.11V242.364H309.702V241.054H277.11V215.828H302.279C301.91 215.387 301.531 214.952 301.14 214.522H277.11V197.861C276.648 197.676 276.182 197.497 275.713 197.329V214.522H248.326V193.175C247.856 193.195 247.394 193.225 246.929 193.262V214.522H225.08V198.595C224.611 198.79 224.148 198.996 223.69 199.211V214.522H205.323V215.828H223.69V241.054H205.323V242.364H223.69V302.148H225.08V242.364C227.949 242.363 230.791 242.894 233.442 243.926C236.093 244.957 238.502 246.47 240.531 248.377C242.56 250.283 244.169 252.547 245.267 255.039C246.364 257.53 246.929 260.2 246.929 262.897V302.148H248.326V242.364H275.713V302.148ZM225.08 241.054V215.828H246.929V241.054H225.08ZM248.326 241.054V215.828H248.874C252.399 215.829 255.889 216.481 259.145 217.749C262.402 219.017 265.36 220.875 267.853 223.218C270.345 225.56 272.322 228.341 273.67 231.401C275.019 234.462 275.713 237.742 275.713 241.054H248.326Z" fill="black"/>
<path d="M267.18 284.222C265.421 291.596 261.208 298.251 255.152 303.222C254.708 303.583 254.264 303.932 253.802 304.276C252.68 304.372 251.567 304.47 250.461 304.569C249.543 304.648 248.637 304.733 247.737 304.812L247.575 304.828L247.461 303.904L247.005 300.16C245.237 297.447 244.14 294.394 243.798 291.228C243.455 288.062 243.875 284.864 245.026 281.871C246.609 277.857 249.477 274.311 252.296 270.793C256.19 265.934 259.975 261.13 260.113 255.205C262.029 257.509 263.622 260.035 264.853 262.72C263.691 263.234 262.648 263.956 261.781 264.845C261.535 265.099 261.289 265.454 261.457 265.759C261.601 266.018 261.961 266.08 262.273 266.114C263.023 266.187 263.779 266.26 264.529 266.334C265.128 266.396 265.728 266.452 266.328 266.514C267.054 268.753 267.546 271.053 267.798 273.381C268.202 277.003 267.994 280.662 267.18 284.222Z" fill="#3F3D56"/>
<path d="M287.098 269.446C283.558 271.864 281.489 275.343 279.881 279.177C278.233 279.672 276.751 280.562 275.58 281.759C275.334 282.012 275.088 282.368 275.256 282.672C275.4 282.931 275.76 282.993 276.072 283.027C276.821 283.101 277.577 283.174 278.327 283.247C276.719 287.78 275.244 292.471 272.4 296.299C270.509 298.826 268.044 300.927 265.183 302.449C264.403 302.867 263.598 303.242 262.772 303.571C259.724 303.791 256.735 304.026 253.803 304.276C252.681 304.372 251.567 304.47 250.461 304.569C249.544 304.648 248.638 304.733 247.738 304.812C247.732 304.502 247.732 304.191 247.738 303.881C247.928 295.621 251.161 287.679 256.887 281.409C257.156 281.116 257.432 280.829 257.714 280.541C260.615 277.629 264.026 275.208 267.799 273.381C273.744 270.476 280.407 269.118 287.098 269.446Z" fill="#6C63FF"/>
<path d="M251.498 301.677L250.809 303.594L250.461 304.569C249.543 304.648 248.637 304.733 247.737 304.812L247.575 304.829C246.579 304.924 245.589 305.02 244.6 305.116C244.342 304.834 244.084 304.547 243.832 304.253C237.57 297.127 234.564 287.962 235.471 278.76C236.378 269.557 241.125 261.067 248.673 255.143C247.881 259.039 248.805 262.771 250.323 266.475C250.161 266.537 250.005 266.599 249.855 266.666C248.693 267.18 247.65 267.902 246.783 268.792C246.537 269.046 246.291 269.401 246.459 269.705C246.603 269.965 246.963 270.027 247.275 270.06C248.025 270.134 248.781 270.207 249.531 270.28C250.131 270.342 250.731 270.399 251.33 270.461C251.612 270.489 251.894 270.517 252.176 270.545C252.218 270.63 252.254 270.709 252.296 270.793C254.006 274.277 255.848 277.778 256.886 281.409C257.146 282.32 257.35 283.244 257.498 284.177C257.96 287.33 257.66 290.541 256.622 293.57C255.583 296.6 253.832 299.37 251.498 301.677Z" fill="#6C63FF"/>
<path d="M311.885 219.907C306.721 210.44 298.719 202.475 289.309 196.621C279.869 190.776 269.036 187.216 257.776 186.259C256.3 186.133 254.821 186.059 253.338 186.037C251.585 186.013 225.222 193.159 216.391 198.994C207.565 204.758 200.304 212.392 195.194 221.279C190.094 230.214 187.585 240.253 187.92 250.388C188.357 260.584 191.382 270.534 196.741 279.409C202.026 288.255 209.532 295.754 218.604 301.253C227.805 306.771 237.048 321.4 247.912 321.917C258.858 322.437 271.341 308.637 281.324 304.447C291.307 300.222 299.938 293.612 306.355 285.276C312.592 277.106 316.626 267.637 318.113 257.68C319.657 247.485 318.937 236.971 315.233 227.227C314.282 224.723 313.164 222.278 311.885 219.907C310.817 217.931 307.688 217.203 305.729 218.39C304.72 218.974 303.989 219.901 303.688 220.979C303.388 222.056 303.541 223.201 304.115 224.175C304.742 225.336 305.325 226.516 305.864 227.715L305.41 226.704C307.45 231.313 308.837 236.154 309.536 241.102L309.375 239.978C310.118 245.347 310.105 250.784 309.335 256.149L309.496 255.025C308.718 260.389 307.194 265.635 304.964 270.627L305.417 269.617C304.27 272.164 302.932 274.631 301.415 277.001C300.646 278.199 299.83 279.368 298.967 280.509C298.588 281.01 298.198 281.502 297.804 281.992C297.29 282.632 298.504 281.156 297.973 281.784C297.883 281.891 297.793 281.998 297.702 282.105C297.43 282.425 297.153 282.742 296.873 283.056C295.003 285.153 292.962 287.111 290.768 288.91C290.222 289.359 289.666 289.797 289.102 290.225C288.821 290.438 288.543 290.66 288.249 290.859C288.261 290.851 289.197 290.182 288.643 290.571C288.468 290.693 288.296 290.817 288.121 290.938C286.957 291.748 285.763 292.517 284.537 293.245C281.715 294.916 278.755 296.37 275.685 297.594L276.76 297.167C271.464 299.263 265.898 300.694 260.204 301.425L261.4 301.274C255.71 301.996 249.943 302.006 244.25 301.302L245.446 301.453C240.271 300.8 235.21 299.514 230.391 297.628L231.466 298.055C228.674 296.947 225.982 295.629 223.417 294.113C222.148 293.362 220.911 292.563 219.708 291.719C219.536 291.598 219.366 291.476 219.195 291.355C218.645 290.965 219.589 291.642 219.597 291.647C219.277 291.431 218.97 291.201 218.676 290.956C218.095 290.511 217.522 290.056 216.959 289.591C214.706 287.726 212.602 285.708 210.664 283.553C210.179 283.014 209.704 282.467 209.24 281.912C209.039 281.672 208.672 281.185 209.483 282.21C209.376 282.075 209.265 281.943 209.158 281.809C208.899 281.487 208.644 281.162 208.392 280.835C207.511 279.689 206.674 278.515 205.88 277.313C204.086 274.593 202.521 271.745 201.198 268.796L201.651 269.806C199.486 264.965 198.006 259.878 197.248 254.676L197.408 255.8C196.724 251.004 196.715 246.145 197.379 241.347L197.219 242.471C197.9 237.825 199.23 233.283 201.175 228.963L200.721 229.973C201.945 227.269 203.388 224.658 205.038 222.162C205.864 220.912 206.739 219.694 207.664 218.506C207.874 218.236 208.086 217.967 208.301 217.701C208.496 217.459 209.03 216.859 208.118 217.92C208.207 217.816 208.293 217.709 208.382 217.604C208.889 216.999 209.409 216.405 209.941 215.819C211.955 213.603 214.137 211.527 216.47 209.606C217.06 209.121 217.658 208.645 218.267 208.18C218.543 207.969 218.821 207.76 219.101 207.553C219.213 207.47 219.326 207.389 219.438 207.306C218.24 208.202 219.105 207.549 219.377 207.358C220.63 206.475 221.917 205.637 223.238 204.843C226.173 203.079 229.26 201.55 232.468 200.272L231.393 200.698C236.049 198.861 256.674 194.525 260.425 194.998L259.229 194.847C264.743 195.571 270.132 196.97 275.259 199.009L274.184 198.583C276.782 199.62 279.307 200.812 281.743 202.151C282.96 202.822 284.153 203.529 285.323 204.273C285.876 204.625 286.424 204.984 286.965 205.352C287.236 205.536 287.505 205.722 287.773 205.91C287.922 206.014 288.069 206.12 288.218 206.224C288.841 206.663 287.359 205.588 288.012 206.074C290.2 207.689 292.277 209.431 294.232 211.291C295.192 212.21 296.12 213.158 297.014 214.135C297.473 214.636 297.922 215.145 298.362 215.661C298.58 215.918 299.324 216.846 298.412 215.709C298.635 215.987 298.861 216.263 299.081 216.543C300.976 218.954 302.66 221.507 304.115 224.175C305.191 226.147 308.306 226.883 310.271 225.692C311.28 225.109 312.012 224.181 312.312 223.104C312.613 222.026 312.46 220.881 311.885 219.907Z" fill="#3F3D56"/>
<path d="M259.459 288.911C258.994 288.931 258.535 288.816 258.142 288.582C257.749 288.349 257.442 288.007 257.263 287.604C257.083 287.201 257.04 286.756 257.139 286.329C257.238 285.902 257.474 285.514 257.816 285.217C257.873 285.004 257.914 284.85 257.971 284.637C257.95 284.59 257.93 284.544 257.909 284.497C255.822 279.819 242.501 292.86 241.925 297.257C241.671 299.2 241.778 301.17 242.241 303.079C237.926 294.233 235.685 284.619 235.671 274.889C235.67 272.447 235.814 270.007 236.103 267.58C236.342 265.591 236.673 263.616 237.097 261.655C239.41 251.014 244.375 241.041 251.586 232.554C255.71 232.771 259.324 232.18 259.672 224.67C259.735 223.334 260.789 222.177 261.021 220.861C260.628 220.909 260.228 220.94 259.834 220.964C259.711 220.97 259.582 220.976 259.46 220.982L259.413 220.984C258.981 221.002 258.552 220.903 258.178 220.697C257.804 220.491 257.501 220.189 257.306 219.825C257.112 219.462 257.033 219.053 257.079 218.649C257.125 218.244 257.295 217.86 257.568 217.544C257.738 217.348 257.908 217.151 258.078 216.955C258.337 216.652 258.601 216.354 258.859 216.051C258.889 216.022 258.917 215.992 258.943 215.96C259.24 215.615 259.537 215.275 259.834 214.929C259.292 214.139 258.563 213.477 257.704 212.994C254.729 211.357 250.624 212.491 248.475 215.02C246.32 217.549 245.913 221.097 246.662 224.257C247.398 226.946 248.616 229.497 250.263 231.802C250.102 231.996 249.934 232.184 249.772 232.378C246.823 235.943 244.252 239.77 242.097 243.805C242.707 239.329 235.251 223.166 232.368 219.743C228.905 215.631 221.803 217.425 221.193 222.638C221.187 222.689 221.181 222.739 221.176 222.79C221.604 223.017 222.023 223.258 222.433 223.513C222.949 223.836 223.348 224.298 223.579 224.839C223.81 225.379 223.862 225.973 223.728 226.541C223.594 227.11 223.28 227.627 222.828 228.025C222.375 228.423 221.806 228.684 221.193 228.773L221.131 228.782C215.398 236.474 233.775 256.494 238.375 251.999C236.21 257.765 234.852 263.771 234.335 269.867C234.042 273.463 234.06 277.075 234.387 280.668L234.367 280.541C233.345 272.715 215.811 261.078 210.691 262.047C207.741 262.606 204.836 262.479 205.284 265.275C205.291 265.32 205.299 265.364 205.306 265.409C206.101 265.713 206.874 266.063 207.623 266.458C208.051 266.685 208.47 266.926 208.88 267.181C209.396 267.505 209.795 267.967 210.026 268.507C210.257 269.048 210.309 269.641 210.175 270.21C210.041 270.778 209.727 271.296 209.275 271.694C208.823 272.092 208.253 272.353 207.64 272.441L207.578 272.45C207.532 272.456 207.494 272.462 207.449 272.469C204.839 280.906 224.19 294.523 235.955 290.191H235.961C237.127 294.952 238.816 299.586 241.002 304.019H259.008C259.072 303.831 259.13 303.637 259.188 303.449C257.522 303.547 255.849 303.454 254.206 303.17C255.542 301.629 256.878 300.077 258.214 298.536C258.244 298.507 258.272 298.477 258.298 298.445C258.975 297.657 259.66 296.874 260.337 296.086L260.338 296.085C260.374 293.668 260.079 291.257 259.459 288.911L259.459 288.911ZM238.84 250.792L238.849 250.78L238.84 250.804V250.792ZM234.851 284.58L234.696 284.253C234.703 284.016 234.703 283.78 234.696 283.537C234.696 283.471 234.684 283.404 234.684 283.337C234.742 283.756 234.793 284.174 234.858 284.593L234.851 284.58Z" fill="#3F3D56"/>
<path d="M57.141 253.7C60.7855 253.7 63.74 250.923 63.74 247.498C63.74 244.073 60.7855 241.296 57.141 241.296C53.4965 241.296 50.542 244.073 50.542 247.498C50.542 250.923 53.4965 253.7 57.141 253.7Z" fill="#3F3D56"/>
<path d="M136.328 321.353C139.973 321.353 142.927 318.576 142.927 315.151C142.927 311.726 139.973 308.95 136.328 308.95C132.684 308.95 129.729 311.726 129.729 315.151C129.729 318.576 132.684 321.353 136.328 321.353Z" fill="#3F3D56"/>
<path d="M436.882 321.353C440.527 321.353 443.481 318.576 443.481 315.151C443.481 311.726 440.527 308.95 436.882 308.95C433.238 308.95 430.283 311.726 430.283 315.151C430.283 318.576 433.238 321.353 436.882 321.353Z" fill="#3F3D56"/>
<path d="M453.08 242.424C456.725 242.424 459.679 239.647 459.679 236.222C459.679 232.797 456.725 230.021 453.08 230.021C449.436 230.021 446.481 232.797 446.481 236.222C446.481 239.647 449.436 242.424 453.08 242.424Z" fill="#3F3D56"/>
<path d="M433.883 184.919C437.528 184.919 440.482 182.142 440.482 178.717C440.482 175.292 437.528 172.516 433.883 172.516C430.239 172.516 427.284 175.292 427.284 178.717C427.284 182.142 430.239 184.919 433.883 184.919Z" fill="#3F3D56"/>
<path d="M158.525 236.222C158.522 237.807 157.87 239.329 156.705 240.474C155.54 241.619 153.951 242.299 152.268 242.374C150.584 242.449 148.934 241.912 147.659 240.876C146.384 239.839 145.583 238.382 145.42 236.805C145.256 235.229 145.745 233.653 146.783 232.406C147.821 231.158 149.33 230.333 150.998 230.101C152.665 229.87 154.364 230.25 155.742 231.163C157.119 232.075 158.071 233.451 158.399 235.005C158.484 235.406 158.526 235.814 158.525 236.222Z" fill="#3F3D56"/>
<path d="M290.505 202.96C294.15 202.96 297.104 200.183 297.104 196.758C297.104 193.333 294.15 190.557 290.505 190.557C286.861 190.557 283.906 193.333 283.906 196.758C283.906 200.183 286.861 202.96 290.505 202.96Z" fill="#3F3D56"/>
<path d="M225.115 196.758C225.111 198.342 224.46 199.864 223.295 201.009C222.13 202.154 220.541 202.835 218.857 202.909C217.174 202.984 215.524 202.448 214.249 201.412C212.974 200.375 212.172 198.918 212.009 197.341C211.846 195.764 212.334 194.189 213.373 192.941C214.411 191.693 215.92 190.868 217.588 190.637C219.255 190.406 220.954 190.786 222.331 191.698C223.709 192.611 224.661 193.987 224.989 195.54C225.074 195.941 225.116 196.349 225.115 196.758Z" fill="#3F3D56"/>
<path d="M139.928 178.717C139.924 180.301 139.272 181.823 138.107 182.968C136.942 184.113 135.354 184.794 133.67 184.869C131.986 184.944 130.336 184.407 129.062 183.371C127.787 182.334 126.985 180.877 126.822 179.3C126.659 177.723 127.147 176.148 128.185 174.9C129.224 173.652 130.733 172.827 132.4 172.596C134.068 172.365 135.766 172.745 137.144 173.658C138.522 174.57 139.473 175.946 139.802 177.499C139.886 177.901 139.929 178.308 139.928 178.717Z" fill="#3F3D56"/>
<path d="M359.495 255.955C363.139 255.955 366.093 253.178 366.093 249.753C366.093 246.328 363.139 243.552 359.495 243.552C355.85 243.552 352.896 246.328 352.896 249.753C352.896 253.178 355.85 255.955 359.495 255.955Z" fill="#3F3D56"/>
<path d="M255.71 199.577C261.011 199.577 265.308 195.538 265.308 190.557C265.308 185.575 261.011 181.536 255.71 181.536C250.409 181.536 246.111 185.575 246.111 190.557C246.111 195.538 250.409 199.577 255.71 199.577Z" fill="#3F3D56"/>
<path d="M515.286 321.827L0.714295 322C0.620492 322 0.527605 321.983 0.440942 321.949C0.354279 321.915 0.275541 321.866 0.209212 321.803C0.142883 321.741 0.0902618 321.667 0.0543649 321.586C0.018468 321.504 0 321.417 0 321.329C0 321.241 0.018468 321.153 0.0543649 321.072C0.0902618 320.99 0.142883 320.916 0.209212 320.854C0.275541 320.792 0.354279 320.742 0.440942 320.709C0.527605 320.675 0.620492 320.657 0.714295 320.657L515.286 320.484C515.475 320.485 515.656 320.556 515.789 320.681C515.923 320.807 515.998 320.978 515.998 321.155C515.998 321.333 515.923 321.504 515.789 321.629C515.656 321.755 515.475 321.826 515.286 321.827Z" fill="#CACACA"/>
</svg>
