<svg xmlns="http://www.w3.org/2000/svg" xmlns:xlink="http://www.w3.org/1999/xlink" width="1000" zoomAndPan="magnify" viewBox="0 0 750 374.999991" height="500" preserveAspectRatio="xMidYMid meet" version="1.0"><defs><g/><clipPath id="id1"><path d="M 16.1875 109.109375 L 172.9375 109.109375 L 172.9375 265.859375 L 16.1875 265.859375 Z M 16.1875 109.109375 " clip-rule="nonzero"/></clipPath></defs><rect x="-75" width="900" fill="#ffffff" y="-37.499999" height="449.999989" fill-opacity="1"/><rect x="-75" width="900" fill="#ffffff" y="-37.499999" height="449.999989" fill-opacity="1"/><rect x="-75" width="900" fill="#ffffff" y="-37.499999" height="449.999989" fill-opacity="1"/><rect x="-75" width="900" fill="#ffffff" y="-37.499999" height="449.999989" fill-opacity="1"/><g clip-path="url(#id1)"><path fill="#000000" d="M 165.097656 229.285156 L 24.023438 229.285156 C 22.585938 229.285156 21.410156 228.109375 21.410156 226.671875 L 21.410156 218.832031 L 167.710938 218.832031 L 167.710938 226.671875 C 167.710938 228.109375 166.539062 229.285156 165.097656 229.285156 Z M 107.625 244.957031 L 81.5 244.957031 L 81.5 234.507812 L 107.625 234.507812 Z M 123.300781 250.183594 C 124.738281 250.183594 125.910156 251.355469 125.910156 252.796875 L 125.910156 260.632812 L 63.210938 260.632812 L 63.210938 252.796875 C 63.210938 251.355469 64.386719 250.183594 65.824219 250.183594 Z M 24.023438 135.234375 L 34.472656 135.234375 L 34.472656 137.847656 L 26.636719 137.847656 C 25.199219 137.847656 24.023438 139.019531 24.023438 140.457031 L 24.023438 208.382812 C 24.023438 209.824219 25.199219 210.996094 26.636719 210.996094 L 162.488281 210.996094 C 163.925781 210.996094 165.097656 209.824219 165.097656 208.382812 L 165.097656 140.457031 C 165.097656 139.019531 163.925781 137.847656 162.488281 137.847656 L 154.648438 137.847656 L 154.648438 135.234375 L 165.097656 135.234375 C 166.539062 135.234375 167.710938 136.40625 167.710938 137.847656 L 167.710938 213.609375 L 21.410156 213.609375 L 21.410156 137.847656 C 21.410156 136.40625 22.585938 135.234375 24.023438 135.234375 Z M 42.3125 114.332031 L 146.8125 114.332031 C 148.25 114.332031 149.425781 115.507812 149.425781 116.945312 L 149.425781 124.785156 L 39.699219 124.785156 L 39.699219 116.945312 C 39.699219 115.507812 40.871094 114.332031 42.3125 114.332031 Z M 42.3125 200.546875 L 146.8125 200.546875 C 151.136719 200.546875 154.648438 197.035156 154.648438 192.707031 L 154.648438 143.070312 L 159.875 143.070312 L 159.875 205.769531 L 29.25 205.769531 L 29.25 143.070312 L 34.472656 143.070312 L 34.472656 192.707031 C 34.472656 197.035156 37.984375 200.546875 42.3125 200.546875 Z M 149.425781 192.707031 C 149.425781 194.148438 148.25 195.320312 146.8125 195.320312 L 42.3125 195.320312 C 40.871094 195.320312 39.699219 194.148438 39.699219 192.707031 L 39.699219 130.007812 L 149.425781 130.007812 Z M 165.097656 130.007812 L 154.648438 130.007812 L 154.648438 116.945312 C 154.648438 112.617188 151.136719 109.109375 146.8125 109.109375 L 42.3125 109.109375 C 37.984375 109.109375 34.472656 112.617188 34.472656 116.945312 L 34.472656 130.007812 L 24.023438 130.007812 C 19.695312 130.007812 16.1875 133.519531 16.1875 137.847656 L 16.1875 226.671875 C 16.1875 230.996094 19.695312 234.507812 24.023438 234.507812 L 76.273438 234.507812 L 76.273438 244.957031 L 65.824219 244.957031 C 61.496094 244.957031 57.988281 248.46875 57.988281 252.796875 L 57.988281 263.246094 C 57.988281 264.683594 59.160156 265.859375 60.597656 265.859375 L 128.523438 265.859375 C 129.960938 265.859375 131.136719 264.683594 131.136719 263.246094 L 131.136719 252.796875 C 131.136719 248.46875 127.625 244.957031 123.300781 244.957031 L 112.847656 244.957031 L 112.847656 234.507812 L 165.097656 234.507812 C 169.425781 234.507812 172.9375 230.996094 172.9375 226.671875 L 172.9375 137.847656 C 172.9375 133.519531 169.425781 130.007812 165.097656 130.007812 " fill-opacity="1" fill-rule="nonzero"/></g><path fill="#000000" d="M 154.648438 221.445312 L 149.425781 221.445312 C 147.984375 221.445312 146.8125 222.621094 146.8125 224.058594 C 146.8125 225.496094 147.984375 226.671875 149.425781 226.671875 L 154.648438 226.671875 C 156.085938 226.671875 157.261719 225.496094 157.261719 224.058594 C 157.261719 222.621094 156.085938 221.445312 154.648438 221.445312 " fill-opacity="1" fill-rule="nonzero"/><path fill="#000000" d="M 50.148438 116.945312 L 44.925781 116.945312 L 44.925781 122.171875 L 50.148438 122.171875 L 50.148438 116.945312 " fill-opacity="1" fill-rule="nonzero"/><path fill="#000000" d="M 60.597656 116.945312 L 55.375 116.945312 L 55.375 122.171875 L 60.597656 122.171875 L 60.597656 116.945312 " fill-opacity="1" fill-rule="nonzero"/><path fill="#000000" d="M 71.050781 116.945312 L 65.824219 116.945312 L 65.824219 122.171875 L 71.050781 122.171875 L 71.050781 116.945312 " fill-opacity="1" fill-rule="nonzero"/><path fill="#000000" d="M 57.988281 140.457031 L 63.210938 140.457031 C 64.648438 140.457031 65.824219 139.285156 65.824219 137.847656 C 65.824219 136.40625 64.648438 135.234375 63.210938 135.234375 L 57.988281 135.234375 C 56.546875 135.234375 55.375 136.40625 55.375 137.847656 C 55.375 139.285156 56.546875 140.457031 57.988281 140.457031 " fill-opacity="1" fill-rule="nonzero"/><path fill="#000000" d="M 71.050781 140.457031 L 73.660156 140.457031 C 75.101562 140.457031 76.273438 139.285156 76.273438 137.847656 C 76.273438 136.40625 75.101562 135.234375 73.660156 135.234375 L 71.050781 135.234375 C 69.609375 135.234375 68.4375 136.40625 68.4375 137.847656 C 68.4375 139.285156 69.609375 140.457031 71.050781 140.457031 " fill-opacity="1" fill-rule="nonzero"/><path fill="#000000" d="M 57.988281 174.421875 L 63.210938 174.421875 C 64.648438 174.421875 65.824219 173.246094 65.824219 171.808594 C 65.824219 170.371094 64.648438 169.195312 63.210938 169.195312 L 57.988281 169.195312 C 56.546875 169.195312 55.375 170.371094 55.375 171.808594 C 55.375 173.246094 56.546875 174.421875 57.988281 174.421875 " fill-opacity="1" fill-rule="nonzero"/><path fill="#000000" d="M 76.273438 171.808594 C 76.273438 170.371094 75.101562 169.195312 73.660156 169.195312 L 71.050781 169.195312 C 69.609375 169.195312 68.4375 170.371094 68.4375 171.808594 C 68.4375 173.246094 69.609375 174.421875 71.050781 174.421875 L 73.660156 174.421875 C 75.101562 174.421875 76.273438 173.246094 76.273438 171.808594 " fill-opacity="1" fill-rule="nonzero"/><path fill="#000000" d="M 60.597656 145.683594 C 60.597656 147.121094 61.773438 148.296875 63.210938 148.296875 L 78.886719 148.296875 C 80.324219 148.296875 81.5 147.121094 81.5 145.683594 C 81.5 144.246094 80.324219 143.070312 78.886719 143.070312 L 63.210938 143.070312 C 61.773438 143.070312 60.597656 144.246094 60.597656 145.683594 " fill-opacity="1" fill-rule="nonzero"/><path fill="#000000" d="M 63.210938 156.132812 L 78.886719 156.132812 C 80.324219 156.132812 81.5 154.960938 81.5 153.519531 C 81.5 152.082031 80.324219 150.910156 78.886719 150.910156 L 63.210938 150.910156 C 61.773438 150.910156 60.597656 152.082031 60.597656 153.519531 C 60.597656 154.960938 61.773438 156.132812 63.210938 156.132812 " fill-opacity="1" fill-rule="nonzero"/><path fill="#000000" d="M 89.335938 156.132812 L 120.6875 156.132812 C 122.125 156.132812 123.300781 154.960938 123.300781 153.519531 C 123.300781 152.082031 122.125 150.910156 120.6875 150.910156 L 89.335938 150.910156 C 87.898438 150.910156 86.722656 152.082031 86.722656 153.519531 C 86.722656 154.960938 87.898438 156.132812 89.335938 156.132812 " fill-opacity="1" fill-rule="nonzero"/><path fill="#000000" d="M 63.210938 163.972656 L 78.886719 163.972656 C 80.324219 163.972656 81.5 162.796875 81.5 161.359375 C 81.5 159.917969 80.324219 158.746094 78.886719 158.746094 L 63.210938 158.746094 C 61.773438 158.746094 60.597656 159.917969 60.597656 161.359375 C 60.597656 162.796875 61.773438 163.972656 63.210938 163.972656 " fill-opacity="1" fill-rule="nonzero"/><path fill="#000000" d="M 89.335938 163.972656 L 131.136719 163.972656 C 132.574219 163.972656 133.75 162.796875 133.75 161.359375 C 133.75 159.917969 132.574219 158.746094 131.136719 158.746094 L 89.335938 158.746094 C 87.898438 158.746094 86.722656 159.917969 86.722656 161.359375 C 86.722656 162.796875 87.898438 163.972656 89.335938 163.972656 " fill-opacity="1" fill-rule="nonzero"/><path fill="#000000" d="M 65.824219 177.035156 L 63.210938 177.035156 C 61.773438 177.035156 60.597656 178.207031 60.597656 179.644531 C 60.597656 181.085938 61.773438 182.257812 63.210938 182.257812 L 65.824219 182.257812 C 67.261719 182.257812 68.4375 181.085938 68.4375 179.644531 C 68.4375 178.207031 67.261719 177.035156 65.824219 177.035156 " fill-opacity="1" fill-rule="nonzero"/><path fill="#000000" d="M 97.175781 177.035156 L 76.273438 177.035156 C 74.835938 177.035156 73.660156 178.207031 73.660156 179.644531 C 73.660156 181.085938 74.835938 182.257812 76.273438 182.257812 L 97.175781 182.257812 C 98.613281 182.257812 99.785156 181.085938 99.785156 179.644531 C 99.785156 178.207031 98.613281 177.035156 97.175781 177.035156 " fill-opacity="1" fill-rule="nonzero"/><path fill="#000000" d="M 123.300781 177.035156 L 107.625 177.035156 C 106.183594 177.035156 105.011719 178.207031 105.011719 179.644531 C 105.011719 181.085938 106.183594 182.257812 107.625 182.257812 L 123.300781 182.257812 C 124.738281 182.257812 125.910156 181.085938 125.910156 179.644531 C 125.910156 178.207031 124.738281 177.035156 123.300781 177.035156 " fill-opacity="1" fill-rule="nonzero"/><path fill="#000000" d="M 65.824219 184.871094 L 63.210938 184.871094 C 61.773438 184.871094 60.597656 186.042969 60.597656 187.484375 C 60.597656 188.921875 61.773438 190.097656 63.210938 190.097656 L 65.824219 190.097656 C 67.261719 190.097656 68.4375 188.921875 68.4375 187.484375 C 68.4375 186.042969 67.261719 184.871094 65.824219 184.871094 " fill-opacity="1" fill-rule="nonzero"/><path fill="#000000" d="M 97.175781 184.871094 L 76.273438 184.871094 C 74.835938 184.871094 73.660156 186.042969 73.660156 187.484375 C 73.660156 188.921875 74.835938 190.097656 76.273438 190.097656 L 97.175781 190.097656 C 98.613281 190.097656 99.785156 188.921875 99.785156 187.484375 C 99.785156 186.042969 98.613281 184.871094 97.175781 184.871094 " fill-opacity="1" fill-rule="nonzero"/><path fill="#000000" d="M 112.847656 184.871094 L 107.625 184.871094 C 106.183594 184.871094 105.011719 186.042969 105.011719 187.484375 C 105.011719 188.921875 106.183594 190.097656 107.625 190.097656 L 112.847656 190.097656 C 114.289062 190.097656 115.460938 188.921875 115.460938 187.484375 C 115.460938 186.042969 114.289062 184.871094 112.847656 184.871094 " fill-opacity="1" fill-rule="nonzero"/><path fill="#000000" d="M 89.335938 148.296875 L 94.5625 148.296875 C 96 148.296875 97.175781 147.121094 97.175781 145.683594 C 97.175781 144.246094 96 143.070312 94.5625 143.070312 L 89.335938 143.070312 C 87.898438 143.070312 86.722656 144.246094 86.722656 145.683594 C 86.722656 147.121094 87.898438 148.296875 89.335938 148.296875 " fill-opacity="1" fill-rule="nonzero"/><g fill="#000000" fill-opacity="1"><g transform="translate(188.788739, 210.772229)"><g><path d="M 27.40625 -50.703125 C 45.144531 -50.703125 54.015625 -42.25 54.015625 -25.34375 C 54.015625 -8.445312 45.144531 0 27.40625 0 L 5.453125 0 L 5.453125 -50.703125 Z M 21.734375 -12.15625 L 27.109375 -12.15625 C 33.941406 -12.15625 37.359375 -15.816406 37.359375 -23.140625 L 37.359375 -27.5625 C 37.359375 -34.875 33.941406 -38.53125 27.109375 -38.53125 L 21.734375 -38.53125 Z M 21.734375 -12.15625 "/></g></g></g><g fill="#000000" fill-opacity="1"><g transform="translate(246.112064, 210.772229)"><g><path d="M 4.9375 -43.46875 L 4.9375 -53.421875 L 19.59375 -53.421875 L 19.59375 -43.46875 Z M 4.9375 0 L 4.9375 -38.90625 L 19.59375 -38.90625 L 19.59375 0 Z M 4.9375 0 "/></g></g></g><g fill="#000000" fill-opacity="1"><g transform="translate(270.647638, 210.772229)"><g><path d="M 48.1875 -46.203125 C 48.1875 -43.203125 47.4375 -40.890625 45.9375 -39.265625 C 44.445312 -37.648438 42.203125 -36.453125 39.203125 -35.671875 C 40.628906 -34.585938 41.742188 -33.320312 42.546875 -31.875 C 43.359375 -30.425781 43.765625 -28.890625 43.765625 -27.265625 C 43.765625 -23.140625 42.203125 -20.019531 39.078125 -17.90625 C 35.960938 -15.789062 32.070312 -14.734375 27.40625 -14.734375 L 21.8125 -14.734375 C 18.71875 -14.734375 17.171875 -14.019531 17.171875 -12.59375 C 17.171875 -11.90625 17.515625 -11.351562 18.203125 -10.9375 C 18.890625 -10.519531 20.09375 -10.3125 21.8125 -10.3125 L 35.078125 -10.3125 C 39.398438 -10.3125 42.664062 -9.179688 44.875 -6.921875 C 47.082031 -4.660156 48.1875 -1.640625 48.1875 2.140625 C 48.1875 4.941406 47.445312 7.347656 45.96875 9.359375 C 44.5 11.367188 42.507812 12.890625 40 13.921875 C 37.5 14.953125 34.773438 15.46875 31.828125 15.46875 L 10.171875 15.46875 C 8.398438 15.46875 6.765625 15.050781 5.265625 14.21875 C 3.765625 13.382812 2.570312 12.242188 1.6875 10.796875 C 0.8125 9.347656 0.375 7.738281 0.375 5.96875 C 0.375 4.050781 0.960938 2.316406 2.140625 0.765625 C 3.316406 -0.773438 4.789062 -1.9375 6.5625 -2.71875 C 5.382812 -3.5625 4.445312 -4.570312 3.75 -5.75 C 3.0625 -6.925781 2.71875 -8.203125 2.71875 -9.578125 C 2.71875 -11.492188 3.429688 -13.222656 4.859375 -14.765625 C 6.285156 -16.316406 8.054688 -17.363281 10.171875 -17.90625 C 8.253906 -19.132812 6.726562 -20.546875 5.59375 -22.140625 C 4.46875 -23.734375 3.90625 -25.414062 3.90625 -27.1875 C 3.90625 -31.707031 5.734375 -34.9375 9.390625 -36.875 C 13.054688 -38.820312 17.910156 -39.796875 23.953125 -39.796875 C 26.597656 -39.796875 28.734375 -39.644531 30.359375 -39.34375 C 32.765625 -40.875 34.320312 -42.265625 35.03125 -43.515625 C 35.75 -44.765625 36.109375 -45.660156 36.109375 -46.203125 Z M 23.796875 -32.125 C 22.179688 -32.125 20.859375 -31.707031 19.828125 -30.875 C 18.796875 -30.039062 18.28125 -28.835938 18.28125 -27.265625 C 18.28125 -25.640625 18.753906 -24.421875 19.703125 -23.609375 C 20.660156 -22.804688 22.023438 -22.40625 23.796875 -22.40625 C 25.566406 -22.40625 26.953125 -22.804688 27.953125 -23.609375 C 28.960938 -24.421875 29.46875 -25.640625 29.46875 -27.265625 C 29.46875 -28.890625 28.960938 -30.101562 27.953125 -30.90625 C 26.953125 -31.71875 25.566406 -32.125 23.796875 -32.125 Z M 18.125 0 C 17 0 16.078125 0.304688 15.359375 0.921875 C 14.648438 1.535156 14.296875 2.40625 14.296875 3.53125 C 14.296875 4.664062 14.660156 5.578125 15.390625 6.265625 C 16.128906 6.953125 17.039062 7.296875 18.125 7.296875 L 29.625 7.296875 C 30.707031 7.296875 31.628906 6.960938 32.390625 6.296875 C 33.148438 5.640625 33.53125 4.742188 33.53125 3.609375 C 33.53125 2.484375 33.160156 1.597656 32.421875 0.953125 C 31.679688 0.316406 30.75 0 29.625 0 Z M 18.125 0 "/></g></g></g><g fill="#000000" fill-opacity="1"><g transform="translate(319.792447, 210.772229)"><g><path d="M 27.40625 -50.703125 C 45.144531 -50.703125 54.015625 -42.25 54.015625 -25.34375 C 54.015625 -8.445312 45.144531 0 27.40625 0 L 5.453125 0 L 5.453125 -50.703125 Z M 21.734375 -12.15625 L 27.109375 -12.15625 C 33.941406 -12.15625 37.359375 -15.816406 37.359375 -23.140625 L 37.359375 -27.5625 C 37.359375 -34.875 33.941406 -38.53125 27.109375 -38.53125 L 21.734375 -38.53125 Z M 21.734375 -12.15625 "/></g></g></g><g fill="#000000" fill-opacity="1"><g transform="translate(377.115773, 210.772229)"><g><path d="M 4.9375 -43.46875 L 4.9375 -53.421875 L 19.59375 -53.421875 L 19.59375 -43.46875 Z M 4.9375 0 L 4.9375 -38.90625 L 19.59375 -38.90625 L 19.59375 0 Z M 4.9375 0 "/></g></g></g><g fill="#000000" fill-opacity="1"><g transform="translate(401.651347, 210.772229)"><g><path d="M 48.1875 -46.203125 C 48.1875 -43.203125 47.4375 -40.890625 45.9375 -39.265625 C 44.445312 -37.648438 42.203125 -36.453125 39.203125 -35.671875 C 40.628906 -34.585938 41.742188 -33.320312 42.546875 -31.875 C 43.359375 -30.425781 43.765625 -28.890625 43.765625 -27.265625 C 43.765625 -23.140625 42.203125 -20.019531 39.078125 -17.90625 C 35.960938 -15.789062 32.070312 -14.734375 27.40625 -14.734375 L 21.8125 -14.734375 C 18.71875 -14.734375 17.171875 -14.019531 17.171875 -12.59375 C 17.171875 -11.90625 17.515625 -11.351562 18.203125 -10.9375 C 18.890625 -10.519531 20.09375 -10.3125 21.8125 -10.3125 L 35.078125 -10.3125 C 39.398438 -10.3125 42.664062 -9.179688 44.875 -6.921875 C 47.082031 -4.660156 48.1875 -1.640625 48.1875 2.140625 C 48.1875 4.941406 47.445312 7.347656 45.96875 9.359375 C 44.5 11.367188 42.507812 12.890625 40 13.921875 C 37.5 14.953125 34.773438 15.46875 31.828125 15.46875 L 10.171875 15.46875 C 8.398438 15.46875 6.765625 15.050781 5.265625 14.21875 C 3.765625 13.382812 2.570312 12.242188 1.6875 10.796875 C 0.8125 9.347656 0.375 7.738281 0.375 5.96875 C 0.375 4.050781 0.960938 2.316406 2.140625 0.765625 C 3.316406 -0.773438 4.789062 -1.9375 6.5625 -2.71875 C 5.382812 -3.5625 4.445312 -4.570312 3.75 -5.75 C 3.0625 -6.925781 2.71875 -8.203125 2.71875 -9.578125 C 2.71875 -11.492188 3.429688 -13.222656 4.859375 -14.765625 C 6.285156 -16.316406 8.054688 -17.363281 10.171875 -17.90625 C 8.253906 -19.132812 6.726562 -20.546875 5.59375 -22.140625 C 4.46875 -23.734375 3.90625 -25.414062 3.90625 -27.1875 C 3.90625 -31.707031 5.734375 -34.9375 9.390625 -36.875 C 13.054688 -38.820312 17.910156 -39.796875 23.953125 -39.796875 C 26.597656 -39.796875 28.734375 -39.644531 30.359375 -39.34375 C 32.765625 -40.875 34.320312 -42.265625 35.03125 -43.515625 C 35.75 -44.765625 36.109375 -45.660156 36.109375 -46.203125 Z M 23.796875 -32.125 C 22.179688 -32.125 20.859375 -31.707031 19.828125 -30.875 C 18.796875 -30.039062 18.28125 -28.835938 18.28125 -27.265625 C 18.28125 -25.640625 18.753906 -24.421875 19.703125 -23.609375 C 20.660156 -22.804688 22.023438 -22.40625 23.796875 -22.40625 C 25.566406 -22.40625 26.953125 -22.804688 27.953125 -23.609375 C 28.960938 -24.421875 29.46875 -25.640625 29.46875 -27.265625 C 29.46875 -28.890625 28.960938 -30.101562 27.953125 -30.90625 C 26.953125 -31.71875 25.566406 -32.125 23.796875 -32.125 Z M 18.125 0 C 17 0 16.078125 0.304688 15.359375 0.921875 C 14.648438 1.535156 14.296875 2.40625 14.296875 3.53125 C 14.296875 4.664062 14.660156 5.578125 15.390625 6.265625 C 16.128906 6.953125 17.039062 7.296875 18.125 7.296875 L 29.625 7.296875 C 30.707031 7.296875 31.628906 6.960938 32.390625 6.296875 C 33.148438 5.640625 33.53125 4.742188 33.53125 3.609375 C 33.53125 2.484375 33.160156 1.597656 32.421875 0.953125 C 31.679688 0.316406 30.75 0 29.625 0 Z M 18.125 0 "/></g></g></g><g fill="#000000" fill-opacity="1"><g transform="translate(450.796156, 210.772229)"><g><path d="M 29.625 -51.578125 C 37.132812 -51.578125 43.078125 -49.695312 47.453125 -45.9375 C 51.828125 -42.1875 54.015625 -36.820312 54.015625 -29.84375 L 38.46875 -29.84375 C 38.46875 -32.789062 37.691406 -35.125 36.140625 -36.84375 C 34.597656 -38.5625 32.398438 -39.421875 29.546875 -39.421875 C 26.253906 -39.421875 23.832031 -38.390625 22.28125 -36.328125 C 20.738281 -34.265625 19.96875 -31.390625 19.96875 -27.703125 L 19.96875 -22.984375 C 19.96875 -19.347656 20.738281 -16.488281 22.28125 -14.40625 C 23.832031 -12.320312 26.207031 -11.28125 29.40625 -11.28125 C 32.550781 -11.28125 34.929688 -12.085938 36.546875 -13.703125 C 38.171875 -15.328125 38.984375 -17.613281 38.984375 -20.5625 L 54.015625 -20.5625 C 54.015625 -13.632812 51.890625 -8.328125 47.640625 -4.640625 C 43.390625 -0.953125 37.382812 0.890625 29.625 0.890625 C 20.976562 0.890625 14.429688 -1.316406 9.984375 -5.734375 C 5.535156 -10.160156 3.3125 -16.695312 3.3125 -25.34375 C 3.3125 -33.988281 5.535156 -40.519531 9.984375 -44.9375 C 14.429688 -49.363281 20.976562 -51.578125 29.625 -51.578125 Z M 29.625 -51.578125 "/></g></g></g><g fill="#000000" fill-opacity="1"><g transform="translate(508.119482, 210.772229)"><g><path d="M 24.53125 -39.796875 C 31.363281 -39.796875 36.734375 -38.0625 40.640625 -34.59375 C 44.546875 -31.132812 46.5 -26.085938 46.5 -19.453125 C 46.5 -12.816406 44.546875 -7.765625 40.640625 -4.296875 C 36.734375 -0.835938 31.363281 0.890625 24.53125 0.890625 C 17.707031 0.890625 12.351562 -0.828125 8.46875 -4.265625 C 4.59375 -7.710938 2.65625 -12.773438 2.65625 -19.453125 C 2.65625 -26.128906 4.59375 -31.1875 8.46875 -34.625 C 12.351562 -38.070312 17.707031 -39.796875 24.53125 -39.796875 Z M 24.53125 -29.84375 C 19.71875 -29.84375 17.3125 -27.066406 17.3125 -21.515625 L 17.3125 -17.3125 C 17.3125 -11.8125 19.71875 -9.0625 24.53125 -9.0625 C 29.394531 -9.0625 31.828125 -11.8125 31.828125 -17.3125 L 31.828125 -21.515625 C 31.828125 -27.066406 29.394531 -29.84375 24.53125 -29.84375 Z M 24.53125 -29.84375 "/></g></g></g><g fill="#000000" fill-opacity="1"><g transform="translate(557.264291, 210.772229)"><g><path d="M 32.640625 0 L 31.6875 -5.890625 C 30.164062 -3.773438 28.160156 -2.113281 25.671875 -0.90625 C 23.191406 0.289062 20.578125 0.890625 17.828125 0.890625 C 13.304688 0.890625 9.914062 -0.359375 7.65625 -2.859375 C 5.40625 -5.367188 4.28125 -8.984375 4.28125 -13.703125 L 4.28125 -38.90625 L 18.9375 -38.90625 L 18.9375 -15.46875 C 18.9375 -13.800781 19.363281 -12.460938 20.21875 -11.453125 C 21.082031 -10.453125 22.300781 -9.953125 23.875 -9.953125 C 25.6875 -9.953125 27.15625 -10.539062 28.28125 -11.71875 C 29.414062 -12.894531 29.984375 -14.34375 29.984375 -16.0625 L 29.984375 -38.90625 L 44.65625 -38.90625 L 44.65625 0 Z M 32.640625 0 "/></g></g></g><g fill="#000000" fill-opacity="1"><g transform="translate(606.409101, 210.772229)"><g><path d="M 28.078125 -39.859375 C 29.203125 -39.859375 30.207031 -39.722656 31.09375 -39.453125 C 31.976562 -39.179688 32.421875 -39.023438 32.421875 -38.984375 L 32.421875 -26.671875 L 27.703125 -26.671875 C 24.660156 -26.671875 22.460938 -25.882812 21.109375 -24.3125 C 19.753906 -22.738281 19.078125 -20.40625 19.078125 -17.3125 L 19.078125 0 L 4.421875 0 L 4.421875 -38.90625 L 16.4375 -38.90625 L 17.390625 -33.015625 C 18.273438 -35.273438 19.675781 -36.976562 21.59375 -38.125 C 23.507812 -39.28125 25.671875 -39.859375 28.078125 -39.859375 Z M 28.078125 -39.859375 "/></g></g></g><g fill="#000000" fill-opacity="1"><g transform="translate(639.123214, 210.772229)"><g><path d="M 22.921875 -39.796875 C 28.128906 -39.796875 32.535156 -38.773438 36.140625 -36.734375 C 39.753906 -34.691406 41.5625 -31.535156 41.5625 -27.265625 L 27.921875 -27.265625 C 27.921875 -28.691406 27.285156 -29.695312 26.015625 -30.28125 C 25.128906 -30.769531 24.023438 -31.015625 22.703125 -31.015625 C 19.160156 -31.015625 17.390625 -30.179688 17.390625 -28.515625 C 17.390625 -27.578125 18.003906 -26.910156 19.234375 -26.515625 C 20.460938 -26.128906 22.476562 -25.71875 25.28125 -25.28125 C 28.71875 -24.78125 31.585938 -24.195312 33.890625 -23.53125 C 36.203125 -22.875 38.21875 -21.695312 39.9375 -20 C 41.65625 -18.3125 42.515625 -15.941406 42.515625 -12.890625 C 42.515625 -7.929688 40.660156 -4.394531 36.953125 -2.28125 C 33.242188 -0.164062 28.394531 0.890625 22.40625 0.890625 C 18.96875 0.890625 15.722656 0.410156 12.671875 -0.546875 C 9.628906 -1.503906 7.148438 -2.988281 5.234375 -5 C 3.316406 -7.019531 2.359375 -9.578125 2.359375 -12.671875 L 15.984375 -12.671875 L 15.984375 -12.375 C 16.035156 -10.707031 16.734375 -9.539062 18.078125 -8.875 C 19.429688 -8.21875 20.875 -7.890625 22.40625 -7.890625 C 26.476562 -7.890625 28.515625 -8.847656 28.515625 -10.765625 C 28.515625 -11.742188 27.875 -12.453125 26.59375 -12.890625 C 25.320312 -13.335938 23.238281 -13.804688 20.34375 -14.296875 C 16.851562 -14.878906 13.988281 -15.515625 11.75 -16.203125 C 9.519531 -16.898438 7.566406 -18.070312 5.890625 -19.71875 C 4.222656 -21.363281 3.390625 -23.65625 3.390625 -26.59375 C 3.390625 -31.363281 5.191406 -34.753906 8.796875 -36.765625 C 12.410156 -38.785156 17.117188 -39.796875 22.921875 -39.796875 Z M 22.921875 -39.796875 "/></g></g></g><g fill="#000000" fill-opacity="1"><g transform="translate(684.141889, 210.772229)"><g><path d="M 24.53125 -39.796875 C 31.65625 -39.796875 37.097656 -38.125 40.859375 -34.78125 C 44.617188 -31.4375 46.5 -26.328125 46.5 -19.453125 L 46.5 -16.953125 L 17.3125 -16.953125 C 17.3125 -14.148438 17.9375 -12.035156 19.1875 -10.609375 C 20.445312 -9.179688 22.425781 -8.46875 25.125 -8.46875 C 27.582031 -8.46875 29.390625 -8.984375 30.546875 -10.015625 C 31.703125 -11.046875 32.28125 -12.421875 32.28125 -14.140625 L 46.5 -14.140625 C 46.5 -9.429688 44.703125 -5.75 41.109375 -3.09375 C 37.523438 -0.4375 32.296875 0.890625 25.421875 0.890625 C 18.203125 0.890625 12.601562 -0.789062 8.625 -4.15625 C 4.644531 -7.53125 2.65625 -12.628906 2.65625 -19.453125 C 2.65625 -26.128906 4.59375 -31.1875 8.46875 -34.625 C 12.351562 -38.070312 17.707031 -39.796875 24.53125 -39.796875 Z M 25.125 -30.4375 C 20.507812 -30.4375 17.929688 -28.25 17.390625 -23.875 L 31.6875 -23.875 C 31.6875 -25.882812 31.109375 -27.476562 29.953125 -28.65625 C 28.796875 -29.84375 27.1875 -30.4375 25.125 -30.4375 Z M 25.125 -30.4375 "/></g></g></g></svg>